<?xml version="1.0" encoding="utf-8"?>
<!-- Generator: Adobe Illustrator 22.0.0, SVG Export Plug-In . SVG Version: 6.00 Build 0)  -->
<svg version="1.1" id="图层_1" xmlns="http://www.w3.org/2000/svg" xmlns:xlink="http://www.w3.org/1999/xlink" x="0px" y="0px"
	 viewBox="0 0 200 200" style="enable-background:new 0 0 200 200;" xml:space="preserve">
<style type="text/css">
	.st0{fill:#FFFFFF;}
</style>
<path class="st0" d="M160.2,39.8c-15.4-15.4-36.7-24.9-60.2-24.9s-44.8,9.5-60.2,24.9s-25,36.7-25,60.2s9.5,44.8,24.9,60.2
	s36.7,24.9,60.2,24.9s44.8-9.5,60.2-24.9S185,123.5,185,100S175.6,55.2,160.2,39.8 M100,12.5c24.2,0,46,9.8,61.9,25.6
	s25.6,37.7,25.6,61.9s-9.8,46-25.6,61.9s-37.7,25.6-61.9,25.6s-46-9.8-61.9-25.6C22.3,146,12.5,124.2,12.5,100s9.8-46,25.6-61.9
	C54,22.3,75.8,12.5,100,12.5z"/>
<path class="st0" d="M54.7,42.1h40.8V44H54.7V42.1z"/>
<path class="st0" d="M74.2,36.1H76v24.2h-1.8V36.1z M74.2,77.8H76V94c0,2.6-1.3,4.8-2.3,6l-1.4-1.1c0.8-1.1,1.9-2.9,1.9-5V77.8z"/>
<path class="st0" d="M54.7,82.9h40.6v1.8H54.7V82.9z M117.7,65.6H133v1.9h-15.3V65.6z"/>
<path class="st0" d="M124.4,66.2h1.8v32.9h-1.8V66.2z"/>
<path class="st0" d="M105,82.9h40.6v1.8H105V82.9z M112.1,145.1h1.8V166h-1.8V145.1z M131.9,140.3c0-0.4,0.4-0.8,0.9-0.8
	s0.9,0.3,0.9,0.8v19.5c0,0.4-0.4,0.8-0.9,0.8s-0.9-0.3-0.9-0.8V140.3z"/>
<path class="st0" d="M125.8,139.4h14v1.8h-14V139.4z M120.1,159.1h25.7v1.9h-25.7C120.1,161,120.1,159.1,120.1,159.1z M112.1,104.4
	h1.8v7h-1.8V104.4z M78.9,130.9h1.9v26.6h-1.9V130.9z"/>
<path class="st0" d="M66.8,164.6H65v-37.7c0-1.7,1.9-3.7,3.7-3.7h22.6c1.7,0,3.7,1.9,3.7,3.7v33.8c0,2.9-1.3,5-2.5,6.6l-1.4-1.4
	c1.4-1.6,2.1-3.5,2.1-5.2v-33.8c0-0.8-1-1.8-1.8-1.8H68.6c-0.9,0-1.8,1-1.8,1.8C66.8,126.9,66.8,164.6,66.8,164.6z M53.4,126.9V125
	H57c0.5,0,0.9,0.4,0.9,0.9V154c0,1.8,1.2,3.5,2.5,4.6l-1.1,1.5c-1.8-1.5-3.2-3.7-3.2-6.1v-27.2L53.4,126.9L53.4,126.9z"/>
<path class="st0" d="M70.9,135.8h18v1.9h-18V135.8z M56.2,106.5H58v11.4h-1.8V106.5z M78.9,120.7c0-0.5,0.4-0.9,0.9-0.9
	s0.9,0.4,0.9,0.9v3.4c0,0.5-0.4,0.9-0.9,0.9s-0.9-0.4-0.9-0.9V120.7z M70.9,149.6h18v1.8h-18V149.6z M107.9,54.8h-1.8V42.6
	c0-1.8,2-3.8,3.8-3.8h15.4v1.8H110c-0.9,0-2,1.1-2,2L107.9,54.8z M112.1,122.2h1.8v7.3h-1.8V122.2z M105.9,145.1h1.8v10h-1.8V145.1z
	 M118.2,145.1h1.8v10h-1.8V145.1z"/>
<path class="st0" d="M83,113.1l-3.1,5.4l-3.1-5.4l-3.1-5.4h12.5L83,113.1z M80.7,120.8l3.9-6.8l3.9-6.8c0.3-0.4,0.1-1-0.3-1.3
	c-0.2-0.1-0.3-0.1-0.5-0.1H72c-0.5,0-0.9,0.4-0.9,0.9c0,0.2,0.1,0.4,0.2,0.5l3.9,6.8l3.9,6.8c0.3,0.4,0.8,0.6,1.3,0.3
	C80.5,121.1,80.6,120.9,80.7,120.8z M142.7,54.8h1.8V42.6c0-1.8-2-3.8-3.8-3.8h-15.4v1.8h15.4c0.9,0,2,1.1,2,2V54.8z M115.6,116.8
	l-2.7-4.6l-2.7,4.6l-2.7,4.6h10.7L115.6,116.8C115.7,116.9,115.6,116.8,115.6,116.8 M113.7,110l3.4,6c0,0,0,0,0,0.1l3.4,5.9
	c0.3,0.4,0.1,1-0.3,1.2c-0.1,0.1-0.3,0.1-0.4,0.1H106c-0.5,0-0.9-0.4-0.9-0.9c0-0.2,0.1-0.4,0.2-0.5l3.4-5.9l3.4-6
	c0.3-0.4,0.8-0.6,1.2-0.3C113.6,109.7,113.7,109.8,113.7,110z M115.6,134.9l-2.7-4.6l-2.7,4.6l-2.7,4.6h10.7L115.6,134.9
	C115.7,134.9,115.6,134.9,115.6,134.9 M113.7,128l3.4,6c0,0,0,0,0,0.1l3.4,5.9c0.3,0.4,0.1,1-0.3,1.2c-0.1,0.1-0.3,0.1-0.4,0.1H106
	c-0.5,0-0.9-0.4-0.9-0.9c0-0.2,0.1-0.4,0.2-0.5l3.4-5.9l3.4-6c0.3-0.4,0.8-0.6,1.2-0.3C113.6,127.8,113.7,127.9,113.7,128L113.7,128
	z M122.6,137.9l13.4-23.2l3.9-6.8c0.3-0.4,0.1-1-0.3-1.3c-0.2-0.1-0.3-0.1-0.5-0.1h-8.3v1.9h6.7l-3.1,5.4l-12.9,22.3L122.6,137.9z"
	/>
<path class="st0" d="M143.1,137.9l-13.4-23.2l-3.9-6.8c-0.3-0.4-0.1-1,0.3-1.3c0.2-0.1,0.3-0.1,0.5-0.1h8.4v1.9h-6.8l3.1,5.4
	l12.9,22.3L143.1,137.9z M84.8,46.8H83v2.1c0,3.1,0.8,6.4,2.5,9l7.8,11.6l1.5-1L87,56.8c-1.5-2.3-2.2-5.2-2.2-7.9
	C84.8,48.9,84.8,46.8,84.8,46.8z M65.4,46.8h1.8v2.1c0,3.1-0.8,6.4-2.5,9L57,69.5l-1.5-1l7.8-11.6c1.5-2.3,2.2-5.2,2.2-7.9
	C65.4,48.9,65.4,46.8,65.4,46.8z M77.8,72l-2.7,4.6L72.5,72l-2.7-4.6h10.7L77.8,72L77.8,72 M75.9,78.8l3.4-6c0,0,0,0,0-0.1l3.4-5.9
	c0.3-0.4,0.1-1-0.3-1.2c-0.1-0.1-0.3-0.1-0.4-0.1H68.2c-0.5,0-0.9,0.4-0.9,0.9c0,0.2,0.1,0.4,0.2,0.5l3.4,5.9l3.4,6
	c0.3,0.4,0.8,0.6,1.2,0.3C75.7,79.1,75.8,79,75.9,78.8z M132.3,43.6v6.2c0,1.3,0.2,2.6,0.6,3.9c0.4,1.3,1,2.6,1.8,3.7L145,72.7
	l-1.5,1l-10.2-15.3c-0.9-1.3-1.6-2.7-2-4.2c-0.4-1.4-0.7-2.9-0.7-4.4v-6.2C130.5,43.6,132.3,43.6,132.3,43.6z M120.1,43.6v6.2
	c0,1.5-0.3,3-0.7,4.4c-0.5,1.5-1.2,2.9-2,4.2l-10.2,15.3l-1.5-1l10.2-15.3c0.8-1.2,1.4-2.4,1.8-3.7c0.4-1.2,0.6-2.5,0.6-3.9v-6.2
	C118.3,43.7,120.1,43.6,120.1,43.6z"/>
</svg>
