<svg xmlns="http://www.w3.org/2000/svg" viewBox="0 0 1024 1024"><path d="M64 64h24.2v24.2H64zM88.2 64h24.2v24.2H88.2z"/><path d="M112.4 64h24.2v24.2h-24.2zM136.6 64h24.2v24.2h-24.2zM160.9 64h24.2v24.2h-24.2zM185.1 64h24.2v24.2h-24.2zM209.3 64h24.2v24.2h-24.2zM378.8 64H403v24.2h-24.2zM427.2 64h24.2v24.2h-24.2zM451.5 64h24.2v24.2h-24.2zM475.7 64h24.2v24.2h-24.2zM548.3 64h24.2v24.2h-24.2zM572.5 64h24.2v24.2h-24.2zM596.8 64H621v24.2h-24.2zM621 64h24.2v24.2H621zM645.2 64h24.2v24.2h-24.2zM693.6 64h24.2v24.2h-24.2z"/><path d="M717.8 64H742v24.2h-24.2zM742.1 64h24.2v24.2h-24.2zM790.5 64h24.2v24.2h-24.2zM814.7 64h24.2v24.2h-24.2z"/><path d="M838.9 64h24.2v24.2h-24.2zM863.1 64h24.2v24.2h-24.2zM887.4 64h24.2v24.2h-24.2zM911.6 64h24.2v24.2h-24.2z"/><path d="M935.8 64H960v24.2h-24.2zM64 88.2h24.2v24.2H64zM209.3 88.2h24.2v24.2h-24.2zM257.7 88.2h24.2v24.2h-24.2zM306.2 88.2h24.2v24.2h-24.2zM330.4 88.2h24.2v24.2h-24.2zM475.7 88.2h24.2v24.2h-24.2zM499.9 88.2h24.2v24.2h-24.2zM524.1 88.2h24.2v24.2h-24.2zM572.5 88.2h24.2v24.2h-24.2zM596.8 88.2H621v24.2h-24.2zM669.4 88.2h24.2v24.2h-24.2zM693.6 88.2h24.2v24.2h-24.2zM742.1 88.2h24.2v24.2h-24.2zM790.5 88.2h24.2v24.2h-24.2zM935.8 88.2H960v24.2h-24.2zM64 112.4h24.2v24.2H64zM112.4 112.4h24.2v24.2h-24.2zM136.6 112.4h24.2v24.2h-24.2zM160.9 112.4h24.2v24.2h-24.2zM209.3 112.4h24.2v24.2h-24.2zM281.9 112.4h24.2v24.2h-24.2zM354.6 112.4h24.2v24.2h-24.2zM378.8 112.4H403v24.2h-24.2zM427.2 112.4h24.2v24.2h-24.2zM475.7 112.4h24.2v24.2h-24.2zM524.1 112.4h24.2v24.2h-24.2zM621 112.4h24.2v24.2H621zM645.2 112.4h24.2v24.2h-24.2zM742.1 112.4h24.2v24.2h-24.2zM790.5 112.4h24.2v24.2h-24.2zM838.9 112.4h24.2v24.2h-24.2zM863.1 112.4h24.2v24.2h-24.2zM887.4 112.4h24.2v24.2h-24.2zM935.8 112.4H960v24.2h-24.2zM64 136.6h24.2v24.2H64zM112.4 136.6h24.2v24.2h-24.2zM136.6 136.6h24.2v24.2h-24.2zM160.9 136.6h24.2v24.2h-24.2zM209.3 136.6h24.2v24.2h-24.2zM281.9 136.6h24.2v24.2h-24.2zM330.4 136.6h24.2v24.2h-24.2zM378.8 136.6H403v24.2h-24.2zM403 136.6h24.2v24.2H403zM427.2 136.6h24.2v24.2h-24.2zM548.3 136.6h24.2v24.2h-24.2zM572.5 136.6h24.2v24.2h-24.2zM596.8 136.6H621v24.2h-24.2zM669.4 136.6h24.2v24.2h-24.2zM693.6 136.6h24.2v24.2h-24.2z"/><path d="M717.8 136.6H742v24.2h-24.2zM742.1 136.6h24.2v24.2h-24.2zM790.5 136.6h24.2v24.2h-24.2zM838.9 136.6h24.2v24.2h-24.2zM863.1 136.6h24.2v24.2h-24.2zM887.4 136.6h24.2v24.2h-24.2zM935.8 136.6H960v24.2h-24.2zM64 160.9h24.2v24.2H64zM112.4 160.9h24.2v24.2h-24.2zM136.6 160.9h24.2v24.2h-24.2zM160.9 160.9h24.2v24.2h-24.2zM209.3 160.9h24.2v24.2h-24.2zM281.9 160.9h24.2v24.2h-24.2zM306.2 160.9h24.2v24.2h-24.2zM330.4 160.9h24.2v24.2h-24.2zM354.6 160.9h24.2v24.2h-24.2zM378.8 160.9H403v24.2h-24.2zM427.2 160.9h24.2v24.2h-24.2zM499.9 160.9h24.2v24.2h-24.2zM669.4 160.9h24.2v24.2h-24.2zM693.6 160.9h24.2v24.2h-24.2z"/><path d="M717.8 160.9H742v24.2h-24.2zM790.5 160.9h24.2v24.2h-24.2zM838.9 160.9h24.2v24.2h-24.2zM863.1 160.9h24.2v24.2h-24.2zM887.4 160.9h24.2v24.2h-24.2zM935.8 160.9H960v24.2h-24.2zM64 185.1h24.2v24.2H64zM209.3 185.1h24.2v24.2h-24.2zM257.7 185.1h24.2v24.2h-24.2zM281.9 185.1h24.2v24.2h-24.2zM330.4 185.1h24.2v24.2h-24.2zM378.8 185.1H403v24.2h-24.2zM403 185.1h24.2v24.2H403zM427.2 185.1h24.2v24.2h-24.2zM499.9 185.1h24.2v24.2h-24.2zM524.1 185.1h24.2v24.2h-24.2zM645.2 185.1h24.2v24.2h-24.2z"/><path d="M669.4 185.1h24.2v24.2h-24.2zM742.1 185.1h24.2v24.2h-24.2zM790.5 185.1h24.2v24.2h-24.2zM935.8 185.1H960v24.2h-24.2zM64 209.3h24.2v24.2H64zM88.2 209.3h24.2v24.2H88.2z"/><path d="M112.4 209.3h24.2v24.2h-24.2zM136.6 209.3h24.2v24.2h-24.2zM160.9 209.3h24.2v24.2h-24.2zM185.1 209.3h24.2v24.2h-24.2zM209.3 209.3h24.2v24.2h-24.2zM257.7 209.3h24.2v24.2h-24.2zM306.2 209.3h24.2v24.2h-24.2zM354.6 209.3h24.2v24.2h-24.2zM403 209.3h24.2v24.2H403zM451.5 209.3h24.2v24.2h-24.2zM499.9 209.3h24.2v24.2h-24.2zM548.3 209.3h24.2v24.2h-24.2zM596.8 209.3H621v24.2h-24.2zM645.2 209.3h24.2v24.2h-24.2zM693.6 209.3h24.2v24.2h-24.2zM742.1 209.3h24.2v24.2h-24.2zM790.5 209.3h24.2v24.2h-24.2zM814.7 209.3h24.2v24.2h-24.2z"/><path d="M838.9 209.3h24.2v24.2h-24.2zM863.1 209.3h24.2v24.2h-24.2zM887.4 209.3h24.2v24.2h-24.2zM911.6 209.3h24.2v24.2h-24.2z"/><path d="M935.8 209.3H960v24.2h-24.2zM257.7 233.5h24.2v24.2h-24.2zM306.2 233.5h24.2v24.2h-24.2zM330.4 233.5h24.2v24.2h-24.2zM354.6 233.5h24.2v24.2h-24.2zM403 233.5h24.2v24.2H403zM427.2 233.5h24.2v24.2h-24.2zM451.5 233.5h24.2v24.2h-24.2zM499.9 233.5h24.2v24.2h-24.2zM524.1 233.5h24.2v24.2h-24.2zM572.5 233.5h24.2v24.2h-24.2zM621 233.5h24.2v24.2H621zM693.6 233.5h24.2v24.2h-24.2zM160.9 257.7h24.2v24.2h-24.2zM185.1 257.7h24.2v24.2h-24.2zM209.3 257.7h24.2v24.2h-24.2zM233.5 257.7h24.2v24.2h-24.2zM403 257.7h24.2v24.2H403zM451.5 257.7h24.2v24.2h-24.2zM499.9 257.7h24.2v24.2h-24.2zM548.3 257.7h24.2v24.2h-24.2zM572.5 257.7h24.2v24.2h-24.2zM596.8 257.7H621v24.2h-24.2zM669.4 257.7h24.2v24.2h-24.2zM717.8 257.7H742v24.2h-24.2zM742.1 257.7h24.2v24.2h-24.2zM790.5 257.7h24.2v24.2h-24.2zM814.7 257.7h24.2v24.2h-24.2zM911.6 257.7h24.2v24.2h-24.2zM64 281.9h24.2v24.2H64zM88.2 281.9h24.2v24.2H88.2z"/><path d="M112.4 281.9h24.2v24.2h-24.2zM136.6 281.9h24.2v24.2h-24.2zM185.1 281.9h24.2v24.2h-24.2zM233.5 281.9h24.2v24.2h-24.2zM257.7 281.9h24.2v24.2h-24.2zM281.9 281.9h24.2v24.2h-24.2zM378.8 281.9H403v24.2h-24.2zM524.1 281.9h24.2v24.2h-24.2zM572.5 281.9h24.2v24.2h-24.2zM596.8 281.9H621v24.2h-24.2zM621 281.9h24.2v24.2H621zM693.6 281.9h24.2v24.2h-24.2z"/><path d="M717.8 281.9H742v24.2h-24.2zM742.1 281.9h24.2v24.2h-24.2z"/><path d="M766.3 281.9h24.2v24.2h-24.2zM838.9 281.9h24.2v24.2h-24.2zM935.8 281.9H960v24.2h-24.2zM64 306.2h24.2v24.2H64zM160.9 306.2h24.2v24.2h-24.2zM185.1 306.2h24.2v24.2h-24.2zM209.3 306.2h24.2v24.2h-24.2zM257.7 306.2h24.2v24.2h-24.2zM354.6 306.2h24.2v24.2h-24.2zM378.8 306.2H403v24.2h-24.2zM403 306.2h24.2v24.2H403zM451.5 306.2h24.2v24.2h-24.2zM475.7 306.2h24.2v24.2h-24.2zM499.9 306.2h24.2v24.2h-24.2zM548.3 306.2h24.2v24.2h-24.2zM621 306.2h24.2v24.2H621zM669.4 306.2h24.2v24.2h-24.2zM693.6 306.2h24.2v24.2h-24.2z"/><path d="M717.8 306.2H742v24.2h-24.2zM742.1 306.2h24.2v24.2h-24.2z"/><path d="M766.3 306.2h24.2v24.2h-24.2zM814.7 306.2h24.2v24.2h-24.2z"/><path d="M838.9 306.2h24.2v24.2h-24.2zM863.1 306.2h24.2v24.2h-24.2zM887.4 306.2h24.2v24.2h-24.2zM88.2 330.4h24.2v24.2H88.2zM136.6 330.4h24.2v24.2h-24.2zM281.9 330.4h24.2v24.2h-24.2zM306.2 330.4h24.2v24.2h-24.2zM330.4 330.4h24.2v24.2h-24.2zM451.5 330.4h24.2v24.2h-24.2zM499.9 330.4h24.2v24.2h-24.2zM524.1 330.4h24.2v24.2h-24.2zM572.5 330.4h24.2v24.2h-24.2zM645.2 330.4h24.2v24.2h-24.2zM693.6 330.4h24.2v24.2h-24.2z"/><path d="M717.8 330.4H742v24.2h-24.2zM766.3 330.4h24.2v24.2h-24.2zM814.7 330.4h24.2v24.2h-24.2zM887.4 330.4h24.2v24.2h-24.2zM64 354.6h24.2v24.2H64zM209.3 354.6h24.2v24.2h-24.2zM233.5 354.6h24.2v24.2h-24.2zM306.2 354.6h24.2v24.2h-24.2zM403 354.6h24.2v24.2H403zM451.5 354.6h24.2v24.2h-24.2zM499.9 354.6h24.2v24.2h-24.2zM572.5 354.6h24.2v24.2h-24.2zM621 354.6h24.2v24.2H621zM766.3 354.6h24.2v24.2h-24.2zM790.5 354.6h24.2v24.2h-24.2zM814.7 354.6h24.2v24.2h-24.2zM863.1 354.6h24.2v24.2h-24.2zM887.4 354.6h24.2v24.2h-24.2zM911.6 354.6h24.2v24.2h-24.2zM88.2 378.8h24.2V403H88.2z"/><path d="M112.4 378.8h24.2V403h-24.2zM136.6 378.8h24.2V403h-24.2zM233.5 378.8h24.2V403h-24.2zM281.9 378.8h24.2V403h-24.2zM354.6 378.8h24.2V403h-24.2zM378.8 378.8H403V403h-24.2zM403 378.8h24.2V403H403zM451.5 378.8h24.2V403h-24.2zM499.9 378.8h24.2V403h-24.2zM548.3 378.8h24.2V403h-24.2zM572.5 378.8h24.2V403h-24.2zM742.1 378.8h24.2V403h-24.2z"/><path d="M766.3 378.8h24.2V403h-24.2zM814.7 378.8h24.2V403h-24.2z"/><path d="M838.9 378.8h24.2V403h-24.2zM887.4 378.8h24.2V403h-24.2zM112.4 403h24.2v24.2h-24.2zM209.3 403h24.2v24.2h-24.2zM233.5 403h24.2v24.2h-24.2zM257.7 403h24.2v24.2h-24.2zM281.9 403h24.2v24.2h-24.2zM354.6 403h24.2v24.2h-24.2zM378.8 403H403v24.2h-24.2zM403 403h24.2v24.2H403zM451.5 403h24.2v24.2h-24.2zM475.7 403h24.2v24.2h-24.2zM524.1 403h24.2v24.2h-24.2zM572.5 403h24.2v24.2h-24.2zM645.2 403h24.2v24.2h-24.2z"/><path d="M669.4 403h24.2v24.2h-24.2zM693.6 403h24.2v24.2h-24.2z"/><path d="M717.8 403H742v24.2h-24.2zM742.1 403h24.2v24.2h-24.2z"/><path d="M766.3 403h24.2v24.2h-24.2zM814.7 403h24.2v24.2h-24.2z"/><path d="M838.9 403h24.2v24.2h-24.2zM863.1 403h24.2v24.2h-24.2zM887.4 403h24.2v24.2h-24.2zM88.2 427.2h24.2v24.2H88.2z"/><path d="M112.4 427.2h24.2v24.2h-24.2zM160.9 427.2h24.2v24.2h-24.2zM281.9 427.2h24.2v24.2h-24.2zM306.2 427.2h24.2v24.2h-24.2zM330.4 427.2h24.2v24.2h-24.2zM354.6 427.2h24.2v24.2h-24.2zM403 427.2h24.2v24.2H403zM475.7 427.2h24.2v24.2h-24.2zM499.9 427.2h24.2v24.2h-24.2zM596.8 427.2H621v24.2h-24.2zM621 427.2h24.2v24.2H621zM645.2 427.2h24.2v24.2h-24.2zM693.6 427.2h24.2v24.2h-24.2z"/><path d="M717.8 427.2H742v24.2h-24.2zM742.1 427.2h24.2v24.2h-24.2zM814.7 427.2h24.2v24.2h-24.2zM887.4 427.2h24.2v24.2h-24.2zM935.8 427.2H960v24.2h-24.2zM88.2 451.5h24.2v24.2H88.2zM136.6 451.5h24.2v24.2h-24.2zM209.3 451.5h24.2v24.2h-24.2zM233.5 451.5h24.2v24.2h-24.2zM257.7 451.5h24.2v24.2h-24.2zM281.9 451.5h24.2v24.2h-24.2zM306.2 451.5h24.2v24.2h-24.2zM378.8 451.5H403v24.2h-24.2zM427.2 451.5h24.2v24.2h-24.2zM475.7 451.5h24.2v24.2h-24.2zM524.1 451.5h24.2v24.2h-24.2z"/><path d="M548.3 451.5h24.2v24.2h-24.2zM596.8 451.5H621v24.2h-24.2zM645.2 451.5h24.2v24.2h-24.2zM766.3 451.5h24.2v24.2h-24.2zM790.5 451.5h24.2v24.2h-24.2zM814.7 451.5h24.2v24.2h-24.2zM863.1 451.5h24.2v24.2h-24.2zM887.4 451.5h24.2v24.2h-24.2zM911.6 451.5h24.2v24.2h-24.2z"/><path d="M935.8 451.5H960v24.2h-24.2zM64 475.7h24.2v24.2H64zM160.9 475.7h24.2v24.2h-24.2zM281.9 475.7h24.2v24.2h-24.2zM330.4 475.7h24.2v24.2h-24.2zM354.6 475.7h24.2v24.2h-24.2zM378.8 475.7H403v24.2h-24.2zM499.9 475.7h24.2v24.2h-24.2zM596.8 475.7H621v24.2h-24.2zM621 475.7h24.2v24.2H621zM693.6 475.7h24.2v24.2h-24.2z"/><path d="M717.8 475.7H742v24.2h-24.2zM742.1 475.7h24.2v24.2h-24.2z"/><path d="M766.3 475.7h24.2v24.2h-24.2zM838.9 475.7h24.2v24.2h-24.2zM863.1 475.7h24.2v24.2h-24.2zM64 499.9h24.2v24.2H64zM88.2 499.9h24.2v24.2H88.2z"/><path d="M112.4 499.9h24.2v24.2h-24.2zM185.1 499.9h24.2v24.2h-24.2zM209.3 499.9h24.2v24.2h-24.2zM257.7 499.9h24.2v24.2h-24.2zM330.4 499.9h24.2v24.2h-24.2zM354.6 499.9h24.2v24.2h-24.2zM378.8 499.9H403v24.2h-24.2zM475.7 499.9h24.2v24.2h-24.2zM499.9 499.9h24.2v24.2h-24.2zM572.5 499.9h24.2v24.2h-24.2zM596.8 499.9H621v24.2h-24.2zM645.2 499.9h24.2v24.2h-24.2z"/><path d="M669.4 499.9h24.2v24.2h-24.2zM693.6 499.9h24.2v24.2h-24.2z"/><path d="M717.8 499.9H742v24.2h-24.2zM742.1 499.9h24.2v24.2h-24.2zM790.5 499.9h24.2v24.2h-24.2zM887.4 499.9h24.2v24.2h-24.2zM64 524.1h24.2v24.2H64zM136.6 524.1h24.2v24.2h-24.2zM160.9 524.1h24.2v24.2h-24.2zM233.5 524.1h24.2v24.2h-24.2zM257.7 524.1h24.2v24.2h-24.2zM281.9 524.1h24.2v24.2h-24.2zM306.2 524.1h24.2v24.2h-24.2zM330.4 524.1h24.2v24.2h-24.2zM427.2 524.1h24.2v24.2h-24.2zM451.5 524.1h24.2v24.2h-24.2zM499.9 524.1h24.2v24.2h-24.2zM572.5 524.1h24.2v24.2h-24.2zM621 524.1h24.2v24.2H621zM693.6 524.1h24.2v24.2h-24.2zM838.9 524.1h24.2v24.2h-24.2zM887.4 524.1h24.2v24.2h-24.2zM911.6 524.1h24.2v24.2h-24.2z"/><path d="M64 548.3h24.2v24.2H64zM88.2 548.3h24.2v24.2H88.2z"/><path d="M112.4 548.3h24.2v24.2h-24.2zM136.6 548.3h24.2v24.2h-24.2zM185.1 548.3h24.2v24.2h-24.2zM209.3 548.3h24.2v24.2h-24.2zM233.5 548.3h24.2v24.2h-24.2zM257.7 548.3h24.2v24.2h-24.2zM330.4 548.3h24.2v24.2h-24.2zM354.6 548.3h24.2v24.2h-24.2zM427.2 548.3h24.2v24.2h-24.2zM451.5 548.3h24.2v24.2h-24.2zM524.1 548.3h24.2v24.2h-24.2z"/><path d="M548.3 548.3h24.2v24.2h-24.2zM572.5 548.3h24.2v24.2h-24.2zM596.8 548.3H621v24.2h-24.2zM621 548.3h24.2v24.2H621zM645.2 548.3h24.2v24.2h-24.2z"/><path d="M669.4 548.3h24.2v24.2h-24.2zM717.8 548.3H742v24.2h-24.2zM766.3 548.3h24.2v24.2h-24.2zM790.5 548.3h24.2v24.2h-24.2zM887.4 548.3h24.2v24.2h-24.2zM911.6 548.3h24.2v24.2h-24.2zM88.2 572.5h24.2v24.2H88.2zM136.6 572.5h24.2v24.2h-24.2zM160.9 572.5h24.2v24.2h-24.2zM185.1 572.5h24.2v24.2h-24.2zM257.7 572.5h24.2v24.2h-24.2zM330.4 572.5h24.2v24.2h-24.2zM403 572.5h24.2v24.2H403zM427.2 572.5h24.2v24.2h-24.2zM475.7 572.5h24.2v24.2h-24.2zM499.9 572.5h24.2v24.2h-24.2zM548.3 572.5h24.2v24.2h-24.2zM645.2 572.5h24.2v24.2h-24.2z"/><path d="M669.4 572.5h24.2v24.2h-24.2zM717.8 572.5H742v24.2h-24.2zM766.3 572.5h24.2v24.2h-24.2zM790.5 572.5h24.2v24.2h-24.2zM838.9 572.5h24.2v24.2h-24.2zM911.6 572.5h24.2v24.2h-24.2z"/><path d="M935.8 572.5H960v24.2h-24.2zM209.3 596.8h24.2V621h-24.2zM306.2 596.8h24.2V621h-24.2zM330.4 596.8h24.2V621h-24.2zM354.6 596.8h24.2V621h-24.2zM427.2 596.8h24.2V621h-24.2zM451.5 596.8h24.2V621h-24.2zM524.1 596.8h24.2V621h-24.2z"/><path d="M548.3 596.8h24.2V621h-24.2zM572.5 596.8h24.2V621h-24.2zM596.8 596.8H621V621h-24.2zM693.6 596.8h24.2V621h-24.2z"/><path d="M717.8 596.8H742V621h-24.2zM742.1 596.8h24.2V621h-24.2z"/><path d="M766.3 596.8h24.2V621h-24.2zM887.4 596.8h24.2V621h-24.2zM64 621h24.2v24.2H64zM88.2 621h24.2v24.2H88.2z"/><path d="M112.4 621h24.2v24.2h-24.2zM185.1 621h24.2v24.2h-24.2zM451.5 621h24.2v24.2h-24.2zM499.9 621h24.2v24.2h-24.2zM572.5 621h24.2v24.2h-24.2zM596.8 621H621v24.2h-24.2zM693.6 621h24.2v24.2h-24.2zM742.1 621h24.2v24.2h-24.2z"/><path d="M766.3 621h24.2v24.2h-24.2zM814.7 621h24.2v24.2h-24.2zM887.4 621h24.2v24.2h-24.2zM911.6 621h24.2v24.2h-24.2zM88.2 645.2h24.2v24.2H88.2z"/><path d="M112.4 645.2h24.2v24.2h-24.2zM136.6 645.2h24.2v24.2h-24.2zM209.3 645.2h24.2v24.2h-24.2zM281.9 645.2h24.2v24.2h-24.2zM306.2 645.2h24.2v24.2h-24.2zM330.4 645.2h24.2v24.2h-24.2zM403 645.2h24.2v24.2H403zM427.2 645.2h24.2v24.2h-24.2zM451.5 645.2h24.2v24.2h-24.2zM475.7 645.2h24.2v24.2h-24.2zM499.9 645.2h24.2v24.2h-24.2zM572.5 645.2h24.2v24.2h-24.2zM596.8 645.2H621v24.2h-24.2zM645.2 645.2h24.2v24.2h-24.2zM717.8 645.2H742v24.2h-24.2zM766.3 645.2h24.2v24.2h-24.2zM790.5 645.2h24.2v24.2h-24.2zM814.7 645.2h24.2v24.2h-24.2z"/><path d="M838.9 645.2h24.2v24.2h-24.2zM863.1 645.2h24.2v24.2h-24.2zM887.4 645.2h24.2v24.2h-24.2zM911.6 645.2h24.2v24.2h-24.2z"/><path d="M935.8 645.2H960v24.2h-24.2zM64 669.4h24.2v24.2H64zM88.2 669.4h24.2v24.2H88.2z"/><path d="M112.4 669.4h24.2v24.2h-24.2zM136.6 669.4h24.2v24.2h-24.2zM160.9 669.4h24.2v24.2h-24.2zM185.1 669.4h24.2v24.2h-24.2zM233.5 669.4h24.2v24.2h-24.2zM281.9 669.4h24.2v24.2h-24.2zM306.2 669.4h24.2v24.2h-24.2zM330.4 669.4h24.2v24.2h-24.2zM427.2 669.4h24.2v24.2h-24.2zM475.7 669.4h24.2v24.2h-24.2zM499.9 669.4h24.2v24.2h-24.2zM548.3 669.4h24.2v24.2h-24.2zM645.2 669.4h24.2v24.2h-24.2z"/><path d="M669.4 669.4h24.2v24.2h-24.2zM742.1 669.4h24.2v24.2h-24.2zM790.5 669.4h24.2v24.2h-24.2zM838.9 669.4h24.2v24.2h-24.2zM863.1 669.4h24.2v24.2h-24.2zM935.8 669.4H960v24.2h-24.2zM112.4 693.6h24.2v24.2h-24.2zM160.9 693.6h24.2v24.2h-24.2zM209.3 693.6h24.2v24.2h-24.2zM257.7 693.6h24.2v24.2h-24.2zM281.9 693.6h24.2v24.2h-24.2zM306.2 693.6h24.2v24.2h-24.2zM330.4 693.6h24.2v24.2h-24.2zM427.2 693.6h24.2v24.2h-24.2zM451.5 693.6h24.2v24.2h-24.2zM524.1 693.6h24.2v24.2h-24.2zM596.8 693.6H621v24.2h-24.2zM621 693.6h24.2v24.2H621zM693.6 693.6h24.2v24.2h-24.2z"/><path d="M717.8 693.6H742v24.2h-24.2zM766.3 693.6h24.2v24.2h-24.2zM838.9 693.6h24.2v24.2h-24.2zM160.9 717.8h24.2V742h-24.2zM185.1 717.8h24.2V742h-24.2zM257.7 717.8h24.2V742h-24.2zM281.9 717.8h24.2V742h-24.2zM330.4 717.8h24.2V742h-24.2zM354.6 717.8h24.2V742h-24.2zM403 717.8h24.2V742H403zM427.2 717.8h24.2V742h-24.2zM475.7 717.8h24.2V742h-24.2zM524.1 717.8h24.2V742h-24.2z"/><path d="M548.3 717.8h24.2V742h-24.2zM621 717.8h24.2V742H621zM693.6 717.8h24.2V742h-24.2zM790.5 717.8h24.2V742h-24.2zM814.7 717.8h24.2V742h-24.2zM863.1 717.8h24.2V742h-24.2zM887.4 717.8h24.2V742h-24.2zM935.8 717.8H960V742h-24.2zM64 742.1h24.2v24.2H64zM88.2 742.1h24.2v24.2H88.2zM136.6 742.1h24.2v24.2h-24.2zM209.3 742.1h24.2v24.2h-24.2zM378.8 742.1H403v24.2h-24.2zM451.5 742.1h24.2v24.2h-24.2zM548.3 742.1h24.2v24.2h-24.2zM693.6 742.1h24.2v24.2h-24.2zM742.1 742.1h24.2v24.2h-24.2z"/><path d="M766.3 742.1h24.2v24.2h-24.2zM790.5 742.1h24.2v24.2h-24.2zM814.7 742.1h24.2v24.2h-24.2z"/><path d="M838.9 742.1h24.2v24.2h-24.2zM863.1 742.1h24.2v24.2h-24.2zM887.4 742.1h24.2v24.2h-24.2zM911.6 742.1h24.2v24.2h-24.2zM257.7 766.3h24.2v24.2h-24.2zM281.9 766.3h24.2v24.2h-24.2zM306.2 766.3h24.2v24.2h-24.2zM330.4 766.3h24.2v24.2h-24.2zM378.8 766.3H403v24.2h-24.2zM403 766.3h24.2v24.2H403zM427.2 766.3h24.2v24.2h-24.2zM451.5 766.3h24.2v24.2h-24.2zM572.5 766.3h24.2v24.2h-24.2zM621 766.3h24.2v24.2H621zM693.6 766.3h24.2v24.2h-24.2z"/><path d="M717.8 766.3H742v24.2h-24.2zM742.1 766.3h24.2v24.2h-24.2zM838.9 766.3h24.2v24.2h-24.2zM863.1 766.3h24.2v24.2h-24.2zM911.6 766.3h24.2v24.2h-24.2zM64 790.5h24.2v24.2H64zM88.2 790.5h24.2v24.2H88.2z"/><path d="M112.4 790.5h24.2v24.2h-24.2zM136.6 790.5h24.2v24.2h-24.2zM160.9 790.5h24.2v24.2h-24.2zM185.1 790.5h24.2v24.2h-24.2zM209.3 790.5h24.2v24.2h-24.2zM257.7 790.5h24.2v24.2h-24.2zM330.4 790.5h24.2v24.2h-24.2zM378.8 790.5H403v24.2h-24.2zM427.2 790.5h24.2v24.2h-24.2zM524.1 790.5h24.2v24.2h-24.2zM572.5 790.5h24.2v24.2h-24.2zM621 790.5h24.2v24.2H621zM693.6 790.5h24.2v24.2h-24.2zM742.1 790.5h24.2v24.2h-24.2zM790.5 790.5h24.2v24.2h-24.2zM838.9 790.5h24.2v24.2h-24.2zM863.1 790.5h24.2v24.2h-24.2zM887.4 790.5h24.2v24.2h-24.2zM64 814.7h24.2v24.2H64zM209.3 814.7h24.2v24.2h-24.2zM257.7 814.7h24.2v24.2h-24.2zM281.9 814.7h24.2v24.2h-24.2zM330.4 814.7h24.2v24.2h-24.2zM354.6 814.7h24.2v24.2h-24.2zM378.8 814.7H403v24.2h-24.2zM403 814.7h24.2v24.2H403zM499.9 814.7h24.2v24.2h-24.2zM524.1 814.7h24.2v24.2h-24.2z"/><path d="M548.3 814.7h24.2v24.2h-24.2zM596.8 814.7H621v24.2h-24.2zM645.2 814.7h24.2v24.2h-24.2zM693.6 814.7h24.2v24.2h-24.2z"/><path d="M717.8 814.7H742v24.2h-24.2zM742.1 814.7h24.2v24.2h-24.2zM838.9 814.7h24.2v24.2h-24.2zM887.4 814.7h24.2v24.2h-24.2zM911.6 814.7h24.2v24.2h-24.2z"/><path d="M935.8 814.7H960v24.2h-24.2zM64 838.9h24.2v24.2H64zM112.4 838.9h24.2v24.2h-24.2zM136.6 838.9h24.2v24.2h-24.2zM160.9 838.9h24.2v24.2h-24.2zM209.3 838.9h24.2v24.2h-24.2zM257.7 838.9h24.2v24.2h-24.2zM281.9 838.9h24.2v24.2h-24.2zM306.2 838.9h24.2v24.2h-24.2zM330.4 838.9h24.2v24.2h-24.2zM354.6 838.9h24.2v24.2h-24.2zM451.5 838.9h24.2v24.2h-24.2zM475.7 838.9h24.2v24.2h-24.2zM548.3 838.9h24.2v24.2h-24.2zM596.8 838.9H621v24.2h-24.2zM693.6 838.9h24.2v24.2h-24.2zM742.1 838.9h24.2v24.2h-24.2z"/><path d="M766.3 838.9h24.2v24.2h-24.2zM790.5 838.9h24.2v24.2h-24.2zM814.7 838.9h24.2v24.2h-24.2z"/><path d="M838.9 838.9h24.2v24.2h-24.2zM863.1 838.9h24.2v24.2h-24.2zM887.4 838.9h24.2v24.2h-24.2zM911.6 838.9h24.2v24.2h-24.2zM64 863.1h24.2v24.2H64zM112.4 863.1h24.2v24.2h-24.2zM136.6 863.1h24.2v24.2h-24.2zM160.9 863.1h24.2v24.2h-24.2zM209.3 863.1h24.2v24.2h-24.2zM281.9 863.1h24.2v24.2h-24.2zM354.6 863.1h24.2v24.2h-24.2zM378.8 863.1H403v24.2h-24.2zM427.2 863.1h24.2v24.2h-24.2zM499.9 863.1h24.2v24.2h-24.2zM572.5 863.1h24.2v24.2h-24.2zM621 863.1h24.2v24.2H621zM645.2 863.1h24.2v24.2h-24.2zM693.6 863.1h24.2v24.2h-24.2zM742.1 863.1h24.2v24.2h-24.2zM790.5 863.1h24.2v24.2h-24.2zM64 887.4h24.2v24.2H64zM112.4 887.4h24.2v24.2h-24.2zM136.6 887.4h24.2v24.2h-24.2zM160.9 887.4h24.2v24.2h-24.2zM209.3 887.4h24.2v24.2h-24.2zM354.6 887.4h24.2v24.2h-24.2zM378.8 887.4H403v24.2h-24.2zM403 887.4h24.2v24.2H403zM475.7 887.4h24.2v24.2h-24.2zM499.9 887.4h24.2v24.2h-24.2zM548.3 887.4h24.2v24.2h-24.2zM572.5 887.4h24.2v24.2h-24.2zM596.8 887.4H621v24.2h-24.2zM621 887.4h24.2v24.2H621zM742.1 887.4h24.2v24.2h-24.2zM790.5 887.4h24.2v24.2h-24.2zM911.6 887.4h24.2v24.2h-24.2zM64 911.6h24.2v24.2H64zM209.3 911.6h24.2v24.2h-24.2zM306.2 911.6h24.2v24.2h-24.2zM330.4 911.6h24.2v24.2h-24.2zM378.8 911.6H403v24.2h-24.2zM427.2 911.6h24.2v24.2h-24.2zM451.5 911.6h24.2v24.2h-24.2zM548.3 911.6h24.2v24.2h-24.2zM621 911.6h24.2v24.2H621zM645.2 911.6h24.2v24.2h-24.2zM717.8 911.6H742v24.2h-24.2zM814.7 911.6h24.2v24.2h-24.2z"/><path d="M838.9 911.6h24.2v24.2h-24.2zM887.4 911.6h24.2v24.2h-24.2zM911.6 911.6h24.2v24.2h-24.2zM64 935.8h24.2V960H64zM88.2 935.8h24.2V960H88.2z"/><path d="M112.4 935.8h24.2V960h-24.2zM136.6 935.8h24.2V960h-24.2zM160.9 935.8h24.2V960h-24.2zM185.1 935.8h24.2V960h-24.2zM209.3 935.8h24.2V960h-24.2zM281.9 935.8h24.2V960h-24.2zM306.2 935.8h24.2V960h-24.2zM330.4 935.8h24.2V960h-24.2zM354.6 935.8h24.2V960h-24.2zM378.8 935.8H403V960h-24.2zM427.2 935.8h24.2V960h-24.2zM475.7 935.8h24.2V960h-24.2zM548.3 935.8h24.2V960h-24.2zM572.5 935.8h24.2V960h-24.2zM596.8 935.8H621V960h-24.2zM645.2 935.8h24.2V960h-24.2z"/><path d="M669.4 935.8h24.2V960h-24.2zM790.5 935.8h24.2V960h-24.2zM838.9 935.8h24.2V960h-24.2zM887.4 935.8h24.2V960h-24.2zM911.6 935.8h24.2V960h-24.2z"/><path d="M935.8 935.8H960V960h-24.2z"/></svg>